:FULLY-SPECIFIED
:FORCE-ALL-JOINTS-BE-3DOF
:DEGREES
204
root 4.8826 15.1498 -25.4454 7.22067 0.661 5.26097
lfemur 5.72278 -3.31053 1.82095
ltibia 6.36284 -0 0
lfoot -32.0072 -14.2007 -0.20928
ltoes 48.7929 -0 0
rfemur -29.3631 -18.8731 -8.4893
rtibia 49.4193 -0 0
rfoot -27.3402 15.3279 0.022669
rtoes 59.2069 -0 0
lowerback -2.71241 -1.82322 -0.667736
upperback -0.674393 -2.36199 -7.23967
thorax 0.545394 -1.19489 -7.25291
lowerneck -11.5448 0.1163 5.64072
upperneck 3.6169 -0.855529 2.66267
head 3.21412 -0.216018 -0.174311
lclavicle 4.58199e-14 1.27222e-14 0
lhumerus -58.1828 -45.2942 115.257
lradius 54.4635 -0 0
lwrist 23.9279 0 0
lhand 40.6508 29.3416 0.00343492
lfingers 7.12502 -0 0
lthumb 62.9242 39.5721 -0.00893374
rclavicle 4.58199e-14 1.27222e-14 0
rhumerus -10.949 -9.04119 -17.8177
rradius 79.9282 -0 0
rwrist -25.4822 0 0
rhand -25.3344 -50.6436 9.93104
rfingers 7.12502 -0 0
rthumb -2.0528 61.2627 -20.5506
205
root 4.86033 15.1255 -25.4586 7.27177 0.319549 5.2685
lfemur 5.8602 -3.22585 1.73874
ltibia 6.39342 -0 0
lfoot -32.7104 -13.5807 -0.182616
ltoes 48.5641 -0 0
rfemur -29.9463 -19.2531 -8.34659
rtibia 49.8788 -0 0
rfoot -27.2658 15.9625 0.0197824
rtoes 59.4283 -0 0
lowerback -2.57549 -1.74191 -0.658407
upperback -0.691791 -2.26149 -7.25966
thorax 0.46126 -1.14612 -7.2696
lowerneck -11.4404 0.193414 5.88234
upperneck 3.6164 -0.773568 2.5701
head 3.19354 -0.176553 -0.241762
lclavicle 4.58199e-14 1.27222e-14 0
lhumerus -58.469 -45.5527 115.563
lradius 54.4776 -0 0
lwrist 24.1039 0 0
lhand 40.4894 29.2972 0.00299774
lfingers 7.12502 -0 0
lthumb 62.7925 39.7134 -0.00779667
rclavicle 4.58199e-14 1.27222e-14 0
rhumerus -9.88661 -14.0609 -17.2405
rradius 76.5308 -0 0
rwrist -25.0686 0 0
rhand -30.7808 -54.4623 8.59334
rfingers 7.12502 -0 0
rthumb -7.54865 69.1691 -17.5828
206
root 4.83806 15.1011 -25.4718 7.32283 -0.0219094 5.27574
lfemur 5.99748 -3.14097 1.65674
ltibia 6.42399 -0 0
lfoot -33.4132 -12.961 -0.148345
ltoes 48.3354 -0 0
rfemur -30.5319 -19.6318 -8.19945
rtibia 50.3383 -0 0
rfoot -27.1914 16.597 0.0160717
rtoes 59.6497 -0 0
lowerback -2.43855 -1.66062 -0.648885
upperback -0.709223 -2.161 -7.27967
thorax 0.377114 -1.09737 -7.28637
lowerneck -11.3357 0.270086 6.12411
upperneck 3.61576 -0.691608 2.47754
head 3.17291 -0.137113 -0.309226
lclavicle 4.58199e-14 1.27222e-14 0
lhumerus -58.7586 -45.8101 115.872
lradius 54.4916 -0 0
lwrist 24.2799 0 0
lhand 40.3281 29.2529 0.00243565
lfingers 7.12502 -0 0
lthumb 62.6608 39.8548 -0.00633474
rclavicle 4.58199e-14 1.27222e-14 0
rhumerus -8.84955 -19.0901 -16.7465
rradius 73.1334 -0 0
rwrist -24.6551 0 0
rhand -36.1062 -58.1225 6.90769
rfingers 7.12502 -0 0
rthumb -12.4855 76.6212 -13.9475
207
root 4.81579 15.0767 -25.4849 7.37385 -0.363374 5.28266
lfemur 6.13463 -3.0559 1.57496
ltibia 6.45457 -0 0
lfoot -34.1157 -12.3418 -0.106478
ltoes 48.1067 -0 0
rfemur -31.1199 -20.009 -8.04784
rtibia 50.7978 -0 0
rfoot -27.117 17.2316 0.0115374
rtoes 59.8712 -0 0
lowerback -2.30161 -1.57936 -0.639169
upperback -0.726689 -2.06051 -7.29971
thorax 0.292955 -1.04865 -7.30321
lowerneck -11.2307 0.346317 6.36601
upperneck 3.61499 -0.609649 2.38497
head 3.15224 -0.0976966 -0.376705
lclavicle 4.58199e-14 1.27222e-14 0
lhumerus -59.0515 -46.0664 116.185
lradius 54.5057 -0 0
lwrist 24.4559 0 0
lhand 40.1668 29.2085 0.00174866
lfingers 7.12502 -0 0
lthumb 62.5291 39.9961 -0.00454797
rclavicle 4.58199e-14 1.27222e-14 0
rhumerus -7.82324 -24.127 -16.3347
rradius 69.7361 -0 0
rwrist -24.2416 0 0
rhand -41.2953 -61.598 4.89677
rfingers 7.12502 -0 0
rthumb -16.8343 83.6243 -9.74352
